<svg width="336" height="521" viewBox="0 0 336 521" fill="none" xmlns="http://www.w3.org/2000/svg">
<path d="M222.597 184.047C222.597 184.047 241.376 224.126 241.376 226.242C241.376 228.358 224.713 237.421 221.539 239.325C219.077 240.727 216.54 241.993 213.939 243.116L215.844 261.683C215.844 261.683 244.532 255.141 256.557 248.6C268.582 242.058 268.159 234.67 265.373 223.703C262.587 212.735 244.056 170.347 244.056 170.347L222.597 184.047Z" fill="#8B5F46"/>
<g style="mix-blend-mode:multiply" opacity="0.5">
<path d="M256.506 248.6C268.531 242.058 268.108 234.67 265.322 223.703C262.536 212.735 244.005 170.347 244.005 170.347L241.007 172.251L240.055 174.014C240.055 174.014 257.352 216.473 258.393 230.615C259.098 240.118 239.967 251.967 227.324 258.738C236.705 256.252 249.471 252.426 256.506 248.6Z" fill="#BBBBBF"/>
</g>
<path d="M222.597 184.047C222.597 184.047 241.376 224.126 241.376 226.242C241.376 228.358 224.713 237.421 221.539 239.325C219.077 240.727 216.54 241.993 213.939 243.116L215.844 261.683C215.844 261.683 244.532 255.141 256.557 248.6C268.582 242.058 268.159 234.67 265.373 223.703C262.587 212.735 244.056 170.347 244.056 170.347L222.597 184.047Z" stroke="#263238" stroke-linecap="round" stroke-linejoin="round"/>
<path d="M87.1104 175.196C87.1104 175.196 73.41 225.395 73.0044 234.264C72.5989 243.134 100.211 260.625 101.216 261.683C102.221 262.741 99.647 231.179 99.647 231.179L109.01 185.334L87.1104 175.196Z" fill="#8B5F46"/>
<g style="mix-blend-mode:multiply" opacity="0.5">
<path d="M93.3875 179.304L93.0878 177.946L87.1104 175.196C87.1104 175.196 73.41 225.395 73.0044 234.264C72.5989 243.134 100.211 260.625 101.216 261.683C101.622 262.106 101.463 257.381 101.128 251.544C92.9114 244.579 81.1153 234.776 79.74 230.65" fill="#BBBBBF"/>
</g>
<path d="M87.1104 175.196C87.1104 175.196 73.41 225.395 73.0044 234.264C72.5989 243.134 100.211 260.625 101.216 261.683C102.221 262.741 99.647 231.179 99.647 231.179L109.01 185.334L87.1104 175.196Z" stroke="#263238" stroke-linecap="round" stroke-linejoin="round"/>
<path d="M151.451 124.767C151.451 124.767 146.162 128.576 135.847 128.999C125.532 129.422 125.038 121.946 112.219 121.946C96.685 121.946 77.2012 171.087 77.2012 171.087C77.2012 171.087 86.899 180.591 96.4029 184.594C101.66 186.897 107.188 188.526 112.854 189.443L114.335 221.728H218.966L220.218 189.443L252.926 168.231C252.926 168.231 236.88 139.543 229.087 128.787C221.293 118.031 208.192 122.034 204.19 124.767C200.187 127.5 188.321 128.152 183.948 127.518C178.243 126.255 172.606 124.707 167.056 122.88C167.056 122.88 160.32 117.273 151.451 124.767Z" fill="#EF5DA8" stroke="#263238" stroke-linecap="round" stroke-linejoin="round"/>
<path fill-rule="evenodd" clip-rule="evenodd" d="M113.5 189.5L114.453 136L102 186.3L113.5 189.5Z" fill="#C54188"/>
<path fill-rule="evenodd" clip-rule="evenodd" d="M206.192 221.862V159C206.192 143.05 192.708 138.107 174.722 131.514C168.465 129.22 161.662 126.727 154.692 123.5L154 123.363C161.833 118.258 167.547 123.015 167.547 123.015C173.097 124.842 178.734 126.39 184.439 127.652C188.812 128.287 200.678 127.634 204.681 124.901C208.684 122.168 221.784 118.166 229.578 128.922C237.371 139.677 253.417 168.365 253.417 168.365L220.709 189.577L219.457 221.862H206.192Z" fill="#C54188"/>
<path d="M113.911 136.158L113.488 189.743" stroke="#263238" stroke-width="0.5" stroke-linecap="round" stroke-linejoin="round"/>
<path d="M117.703 141.024C117.703 141.024 119.184 167.173 124.756 181.737" stroke="#263238" stroke-width="0.5" stroke-linecap="round" stroke-linejoin="round"/>
<path d="M125.725 183.836C126.928 187.39 128.408 190.845 130.15 194.168" stroke="#263238" stroke-width="0.5" stroke-linecap="round" stroke-linejoin="round"/>
<path d="M121.07 138.062C123.072 147.57 125.898 156.886 129.516 165.904" stroke="#263238" stroke-width="0.5" stroke-linecap="round" stroke-linejoin="round"/>
<path d="M212.02 142.699C212.02 142.699 206.959 163.382 202.516 172.674" stroke="#263238" stroke-width="0.5" stroke-linecap="round" stroke-linejoin="round"/>
<path d="M220.217 189.531L220.006 147.76" stroke="#263238" stroke-width="0.5" stroke-linecap="round" stroke-linejoin="round"/>
<path d="M217.907 148.606C217.907 148.606 214.099 175.055 204.824 188.896" stroke="#263238" stroke-width="0.5" stroke-linecap="round" stroke-linejoin="round"/>
<path d="M213.27 183.624C213.27 183.624 209.038 191.647 206.094 195.861" stroke="#263238" stroke-width="0.5" stroke-linecap="round" stroke-linejoin="round"/>
<path d="M145.545 127.941C145.545 127.941 148.507 146.085 152.721 155.359C156.935 164.634 164.323 166.538 170.653 163.805C176.984 161.072 181.621 147.548 181.233 130.304" stroke="#263238" stroke-width="0.5" stroke-linecap="round" stroke-linejoin="round"/>
<path d="M130.574 89.9606C130.574 89.9606 126.554 83.0135 123.398 86.5928C120.242 90.1722 125.937 98.4066 129.093 101.14C132.249 103.873 134.577 102.198 134.383 99.2529C134.189 96.3083 130.574 89.9606 130.574 89.9606Z" fill="#8B5F46" stroke="#263238" stroke-linecap="round" stroke-linejoin="round"/>
<path d="M130.574 89.9606C130.574 89.9606 126.554 83.0135 123.398 86.5928C120.242 90.1722 125.937 98.4066 129.093 101.14C132.249 103.873 134.577 102.198 134.383 99.2529C134.189 96.3083 130.574 89.9606 130.574 89.9606Z" stroke="#263238" stroke-linecap="round" stroke-linejoin="round"/>
<path d="M194.386 89.9606C194.386 89.9606 198.389 83.0135 201.563 86.5928C204.737 90.1722 199.024 98.4066 195.867 101.14C192.711 103.873 190.366 102.198 190.578 99.2529C190.789 96.3083 194.386 89.9606 194.386 89.9606Z" fill="#8B5F46" stroke="#263238" stroke-linecap="round" stroke-linejoin="round"/>
<path d="M194.386 89.9606C194.386 89.9606 198.389 83.0135 201.563 86.5928C204.737 90.1722 199.024 98.4066 195.867 101.14C192.711 103.873 190.366 102.198 190.578 99.2529C190.789 96.3083 194.386 89.9606 194.386 89.9606Z" stroke="#263238" stroke-linecap="round" stroke-linejoin="round"/>
<path d="M149.547 123.303C151.539 132.307 154.076 141.181 157.146 149.876C160.955 159.362 168.114 159.362 171.076 153.243C174.038 147.125 175.925 124.326 175.925 124.326C175.925 124.326 156.089 127.094 149.547 123.303Z" fill="#8B5F46" stroke="#263238" stroke-linecap="round" stroke-linejoin="round"/>
<path d="M130.997 92.2881C130.997 92.2881 136.48 111.684 146.866 123.092C157.251 134.5 160.972 137.198 166.491 136.369C172.01 135.54 177.881 128.364 186.098 113.447C194.315 98.53 194.914 87.0865 195.602 86.0286C196.29 84.9707 193.839 63.8823 182.096 54.8016C170.352 45.7209 157.199 41.7359 145.808 51.6454C134.417 61.5548 127.188 77.7237 130.997 92.2881Z" fill="#8B5F46"/>
<path d="M130.997 92.2881C130.997 92.2881 136.48 111.684 146.866 123.092C157.251 134.5 160.972 137.198 166.491 136.369C172.01 135.54 177.881 128.364 186.098 113.447C194.315 98.53 194.914 87.0865 195.602 86.0286C196.29 84.9707 193.839 63.8823 182.096 54.8016C170.352 45.7209 157.199 41.7359 145.808 51.6454C134.417 61.5548 127.188 77.7237 130.997 92.2881Z" stroke="#263238" stroke-linecap="round" stroke-linejoin="round"/>
<path d="M166.439 102.409C165.785 106.528 165.431 110.688 165.381 114.858C165.592 119.072 166.862 120.341 164.958 120.765C163.053 121.188 160.955 118.225 160.955 118.225" stroke="#263238" stroke-linecap="round" stroke-linejoin="round"/>
<path d="M145.332 105.795C146.554 106.677 148.015 107.17 149.522 107.208C151.03 107.246 152.513 106.827 153.778 106.006" stroke="#263238" stroke-linecap="round" stroke-linejoin="round"/>
<path d="M172.135 105.795C173.354 106.676 174.812 107.168 176.316 107.205C177.82 107.243 179.301 106.825 180.563 106.006" stroke="#263238" stroke-linecap="round" stroke-linejoin="round"/>
<path d="M158.803 98.6887C158.803 98.6887 154.783 88.7617 141.506 93.399" stroke="#263238" stroke-linecap="round" stroke-linejoin="round"/>
<path d="M169.859 97.472C169.859 97.472 173.227 87.7566 185.253 93.4518" stroke="#263238" stroke-linecap="round" stroke-linejoin="round"/>
<path d="M161.361 106.517C161.361 111.948 155.137 116.339 147.449 116.339C139.761 116.339 133.52 111.948 133.52 106.517C133.52 101.087 139.338 98.8297 147.026 98.8297C154.714 98.8297 161.361 101.104 161.361 106.517Z" stroke="#263238" stroke-linecap="round" stroke-linejoin="round"/>
<path d="M193.433 106.517C193.433 111.948 187.192 116.339 179.504 116.339C171.816 116.339 165.592 111.948 165.592 106.517C165.592 101.087 171.393 98.8297 179.081 98.8297C186.768 98.8297 193.433 101.104 193.433 106.517Z" stroke="#263238" stroke-linecap="round" stroke-linejoin="round"/>
<path d="M180.861 36.6049C182.96 36.1641 187.456 34.4361 190.489 27.4008C190.535 27.2943 190.561 27.1797 190.563 27.0635C190.565 26.9472 190.544 26.8317 190.502 26.7235C190.459 26.6154 190.395 26.5167 190.315 26.4332C190.234 26.3497 190.137 26.2831 190.03 26.237C189.815 26.1475 189.573 26.1453 189.356 26.2308C189.138 26.3164 188.963 26.483 188.866 26.6955C186.081 33.149 182.096 34.5772 180.438 34.8946C183.404 31.305 185.042 26.8026 185.076 22.1463C185.076 9.90943 173.738 0 159.755 0C145.773 0 134.435 9.90943 134.435 22.1463C134.445 26.6149 135.933 30.9547 138.667 34.489C136.004 34.348 131.508 35.4765 125.813 42.1239C125.65 42.2916 125.559 42.5161 125.559 42.7498C125.559 42.9835 125.65 43.208 125.813 43.3758C125.976 43.5116 126.182 43.5864 126.395 43.5874C126.523 43.5875 126.65 43.5591 126.766 43.5042C126.881 43.4493 126.984 43.3693 127.065 43.27C134.347 34.7888 139.161 36.217 140.13 36.6049C138.484 37.5105 136.941 38.5924 135.528 39.8317C127.4 47.1491 122.445 60.9906 123.08 72.5222C123.793 80.1704 126.566 87.4824 131.103 93.6811C137.006 89.4559 141.902 83.9763 145.438 77.6356C148.073 72.978 150.428 68.1676 152.491 63.2299C152.491 68.3962 153.161 74.6381 155.876 79.0991C157.835 82.6227 160.705 85.5553 164.185 87.5901C167.665 89.6249 171.628 90.6872 175.66 90.6659C177.052 90.6859 178.442 90.5499 179.803 90.2604C179.923 90.2305 180.035 90.1758 180.132 90.0998C180.23 90.0239 180.31 89.9284 180.368 89.8196C187.174 91.2654 193.945 91.142 194.985 89.6962C196.66 87.3863 199.04 80.1747 199.834 71.3584C201.28 56.4061 191.864 43.4287 180.861 36.6049ZM157.516 78.0235C154.095 72.434 154.201 63.318 154.607 58.0812L154.836 57.4817C154.999 62.8678 156.372 68.1481 158.853 72.9312C161.335 77.7143 164.861 81.8773 169.171 85.1117C171.552 86.7573 174.192 87.9912 176.982 88.7616C172.662 89.0614 163.776 88.2327 157.516 78.0235Z" fill="#263238"/>
<path d="M157.816 50.27C157.816 50.27 156.37 60.9553 169.947 71.4289C183.524 81.9026 196.396 77.7766 196.396 77.7766" stroke="#E1E1E6" stroke-width="0.5" stroke-linecap="round" stroke-linejoin="round"/>
<path d="M159.809 46.7436C159.809 46.7436 174.109 67.5675 193.857 62.1367" stroke="#E1E1E6" stroke-width="0.5" stroke-linecap="round" stroke-linejoin="round"/>
<path d="M152.737 39.814C150.482 38.669 147.956 38.1654 145.434 38.3582C142.913 38.551 140.492 39.4327 138.437 40.9072C130.838 45.9677 127.029 57.9225 127.029 57.9225" stroke="#E1E1E6" stroke-width="0.5" stroke-linecap="round" stroke-linejoin="round"/>
<path d="M153.108 45.6151C153.108 45.6151 146.954 43.9753 143.145 47.7839C141.289 49.466 139.702 51.4224 138.438 53.585" stroke="#E1E1E6" stroke-width="0.5" stroke-linecap="round" stroke-linejoin="round"/>
<path d="M23.926 269.854L23.0254 461.271C23.0254 461.874 23.3042 462.453 23.8006 462.879C24.2969 463.306 24.97 463.545 25.672 463.545C26.3564 463.545 27.014 463.316 27.5048 462.906C27.9957 462.496 28.281 461.938 28.3001 461.35L34.6592 270.123L23.926 269.854Z" fill="#E1E1E6" stroke="#263238" stroke-linecap="round" stroke-linejoin="round"/>
<path d="M10.0627 314.308L9.2774 512.077C9.27518 512.376 9.33589 512.672 9.45602 512.949C9.57614 513.225 9.75329 513.477 9.97715 513.688C10.201 513.9 10.4671 514.067 10.76 514.18C11.0529 514.294 11.3668 514.351 11.6834 514.349C12.3045 514.35 12.9017 514.123 13.3501 513.717C13.7986 513.311 14.0634 512.757 14.0893 512.171L19.8536 314.56L10.0627 314.308Z" fill="#E1E1E6" stroke="#263238" stroke-linecap="round" stroke-linejoin="round"/>
<path d="M311.994 269.854L312.814 461.271C312.817 461.569 312.756 461.865 312.637 462.14C312.518 462.416 312.342 462.667 312.119 462.878C311.897 463.09 311.633 463.257 311.341 463.372C311.05 463.486 310.737 463.545 310.421 463.545C309.797 463.545 309.196 463.317 308.746 462.907C308.297 462.498 308.033 461.94 308.012 461.35L302.238 270.123L311.994 269.854Z" fill="#E1E1E6" stroke="#263238" stroke-linecap="round" stroke-linejoin="round"/>
<path d="M325.744 314.308L326.562 512.077C326.565 512.376 326.504 512.672 326.384 512.949C326.264 513.225 326.087 513.477 325.863 513.688C325.639 513.9 325.373 514.067 325.08 514.18C324.787 514.294 324.473 514.351 324.157 514.349C323.537 514.349 322.942 514.123 322.496 513.716C322.05 513.31 321.789 512.756 321.767 512.171L315.986 314.56L325.744 314.308Z" fill="#E1E1E6" stroke="#263238" stroke-linecap="round" stroke-linejoin="round"/>
<path d="M108.105 322.775L107.646 497.66C107.596 498.097 107.718 498.535 107.986 498.884C108.255 499.233 108.65 499.465 109.087 499.531C109.514 499.473 109.902 499.254 110.173 498.921C110.443 498.589 110.576 498.166 110.544 497.739L113.98 322.98L108.105 322.775Z" fill="#E1E1E6" stroke="#263238" stroke-linecap="round" stroke-linejoin="round"/>
<path d="M228.75 316.425L229.254 470.426C229.297 470.799 229.17 471.171 228.899 471.466C228.628 471.762 228.235 471.957 227.8 472.012C227.366 471.957 226.974 471.761 226.706 471.465C226.439 471.17 226.316 470.797 226.364 470.426L222.916 316.552L228.75 316.425Z" fill="#E1E1E6" stroke="#263238" stroke-linecap="round" stroke-linejoin="round"/>
<path d="M106.067 316.425L106.57 470.426C106.613 470.799 106.486 471.171 106.215 471.466C105.945 471.762 105.551 471.957 105.116 472.012C104.682 471.957 104.29 471.761 104.023 471.465C103.755 471.17 103.633 470.797 103.681 470.426L100.232 316.552L106.067 316.425Z" fill="#E1E1E6" stroke="#263238" stroke-linecap="round" stroke-linejoin="round"/>
<path d="M225.503 322.775L226.076 497.66C226.135 498.097 225.992 498.535 225.679 498.884C225.365 499.233 224.905 499.465 224.395 499.531C223.899 499.469 223.448 499.25 223.133 498.918C222.818 498.586 222.662 498.165 222.695 497.739L218.686 322.98L225.503 322.775Z" fill="#E1E1E6" stroke="#263238" stroke-linecap="round" stroke-linejoin="round"/>
<path d="M165.708 336C207.931 336 242.16 328.227 242.16 318.638C242.16 309.049 207.931 301.276 165.708 301.276C123.485 301.276 89.2559 309.049 89.2559 318.638C89.2559 328.227 123.485 336 165.708 336Z" fill="#E1E1E6" stroke="#263238" stroke-linecap="round" stroke-linejoin="round"/>
<path d="M128.478 466.018C128.478 466.018 124.475 471.72 127.344 474.554C130.213 477.388 133.065 476.261 132.773 479.112C132.481 481.963 127.911 491.626 123.908 501.869C119.905 512.112 128.203 522.355 135.934 519.521C143.665 516.687 142.806 488.212 143.94 483.09C145.074 477.969 145.95 477.115 145.658 472.284C145.366 467.452 145.091 462.331 141.363 461.75C137.635 461.17 130.196 464.038 128.478 466.018Z" fill="#E1E1E6" stroke="#263238" stroke-linecap="round" stroke-linejoin="round"/>
<path d="M140.761 511.668C135.606 509.722 127.704 510.115 123.254 510.559C124.749 516.995 130.47 521.519 135.933 519.521C138.218 518.685 139.713 515.646 140.761 511.668Z" fill="#F178B6" stroke="#263238" stroke-linecap="round" stroke-linejoin="round"/>
<path d="M119.613 453.505C119.613 453.505 127.911 467.452 130.196 471.14C132.481 474.827 140.23 473.701 141.089 468.579C141.948 463.458 137.927 449.237 137.927 449.237L120.747 453.505H119.613Z" fill="#8B5F46" stroke="#263238" stroke-linecap="round" stroke-linejoin="round"/>
<path d="M99.8562 431.312C99.8562 431.312 97.554 435.016 98.7051 437.577C99.8562 440.138 103 447.53 105.01 451.235C107.02 454.939 116.177 457.21 126.76 455.502C137.343 453.795 143.374 448.947 143.666 444.679C143.958 440.411 141.948 434.726 140.505 427.897C139.061 421.069 135.35 421.359 130.196 421.359C125.042 421.359 104.151 427.334 99.8562 431.312Z" fill="#EF5DA8" stroke="#263238" stroke-linecap="round" stroke-linejoin="round"/>
<path d="M130.78 347.66C130.934 340.661 135.006 337.212 135.315 332.415C135.8 326.073 135.272 319.695 133.752 313.516L125.918 302.881C103.377 303.171 87.2279 303.547 86.9702 303.632C86.1112 303.905 85.5271 308.753 84.9601 312.731C84.9601 312.731 75.3908 313.943 77.1088 340.404C77.3493 344.092 87.0046 386.754 87.709 391.62C92.004 421.342 101.573 436.228 101.573 436.228C101.573 436.228 102.432 439.933 113.6 439.079C124.767 438.226 135.934 430.834 135.934 430.834C135.934 430.834 130.196 372.977 130.78 347.66Z" fill="#263238" stroke="#263238" stroke-linecap="round" stroke-linejoin="round"/>
<path d="M104.426 313.516C111.968 313.902 119.451 315.046 126.76 316.931C136.502 319.782 153.682 325.467 157.685 325.467C161.688 325.467 160.554 310.666 160.554 307.832C160.554 304.998 109.013 303.273 102.708 303.273C96.4029 303.273 104.426 313.516 104.426 313.516Z" fill="#8B5F46" stroke="#263238" stroke-linecap="round" stroke-linejoin="round"/>
<path d="M160.552 307.832C160.552 307.832 155.965 310.102 154.247 318.638C152.529 327.174 150.244 331.732 153.68 334.002C157.116 336.273 172.012 337.98 174.296 335.71C176.581 333.439 182.887 322.052 184.038 314.66C185.189 307.268 160.552 307.832 160.552 307.832Z" fill="#EF5DA8" stroke="#263238" stroke-linecap="round" stroke-linejoin="round"/>
<path d="M180.018 310.665C177.355 313.702 175.229 317.166 173.73 320.908C172.516 324.826 171.558 328.818 170.861 332.859C176.342 334.352 181.701 336.258 186.89 338.561C196.065 342.538 211.527 345.389 226.405 348.804C241.283 352.218 245.303 355.632 250.457 355.632C255.611 355.632 261.916 351.638 269.939 341.975C277.963 332.312 271.073 311.809 263.067 305.544C255.061 299.279 212.094 294.174 206.373 295.881C200.652 297.589 180.018 310.665 180.018 310.665Z" fill="#263238" stroke="#263238" stroke-linecap="round" stroke-linejoin="round"/>
<path d="M129.904 335.181C129.904 335.181 123.994 398.022 111.934 407.804" stroke="#49606B" stroke-width="0.5" stroke-linecap="round" stroke-linejoin="round"/>
<path d="M125.729 394.829C125.729 394.829 121.039 415.315 108.738 423.459" stroke="#49606B" stroke-width="0.5" stroke-linecap="round" stroke-linejoin="round"/>
<path d="M201.785 323.76C201.785 323.76 183.453 324.903 195.479 332.859C207.506 340.814 229.273 345.953 229.273 345.953" stroke="#49606B" stroke-width="0.5" stroke-linecap="round" stroke-linejoin="round"/>
<path d="M334.863 306.466L328.678 300.934L314.384 270.205C313.706 268.807 312.641 267.63 311.315 266.811C309.988 265.992 308.455 265.564 306.893 265.579H29.2614C27.6968 265.561 26.1596 265.987 24.8298 266.806C23.5001 267.626 22.433 268.805 21.7537 270.205L3.9378 308.48L1 307.405V316.163L1.13744 316.06C1.31244 317.229 1.90924 318.294 2.81651 319.057C3.72378 319.82 4.87954 320.23 6.06815 320.209H330.069C331.321 320.237 332.535 319.781 333.455 318.937C334.375 318.093 334.929 316.927 335 315.685L334.863 306.466Z" fill="#5E5E61" stroke="#263238" stroke-linecap="round" stroke-linejoin="round"/>
<path d="M330.07 312.202H6.06874C5.26638 312.234 4.46907 312.062 3.75155 311.704C3.03404 311.346 2.41984 310.812 1.96653 310.154C1.51322 309.495 1.23564 308.733 1.15985 307.939C1.08405 307.144 1.21251 306.344 1.53317 305.612L21.7543 262.199C22.4302 260.795 23.4965 259.614 24.827 258.794C26.1575 257.974 27.6966 257.55 29.262 257.572H306.894C308.456 257.553 309.992 257.979 311.319 258.799C312.646 259.618 313.71 260.798 314.384 262.199L334.605 305.612C334.926 306.344 335.055 307.144 334.979 307.939C334.903 308.733 334.625 309.495 334.172 310.154C333.719 310.812 333.105 311.346 332.387 311.704C331.67 312.062 330.872 312.234 330.07 312.202Z" fill="#E1E1E6" stroke="#263238" stroke-linecap="round" stroke-linejoin="round"/>
<g style="mix-blend-mode:multiply" opacity="0.5">
<path d="M22.4744 283.043C22.4744 283.043 15.1384 288.045 19.7255 289.872C24.3126 291.699 77.0386 290.333 83.464 288.506C89.8894 286.679 97.2082 269.83 97.2082 267.098C97.2082 264.367 87.9652 262.403 84.5636 262.25C81.1619 262.096 36.2185 264.811 36.2185 264.811L22.4744 283.043Z" fill="#A8A8A8"/>
</g>
<g style="mix-blend-mode:multiply" opacity="0.5">
<path d="M284.748 291.699C295.129 291.699 303.543 288.229 303.543 283.948C303.543 279.668 295.129 276.198 284.748 276.198C274.368 276.198 265.953 279.668 265.953 283.948C265.953 288.229 274.368 291.699 284.748 291.699Z" fill="#A8A8A8"/>
</g>
<g style="mix-blend-mode:multiply" opacity="0.5">
<path d="M165.087 301.276C202.31 301.276 232.485 295.666 232.485 288.745C232.485 281.825 202.31 276.215 165.087 276.215C127.865 276.215 97.6895 281.825 97.6895 288.745C97.6895 295.666 127.865 301.276 165.087 301.276Z" fill="#A8A8A8"/>
</g>
<path d="M271.003 253.458C271.003 253.458 269.766 248.558 265.66 250.197C261.554 251.836 261.967 262.66 262.774 268.788C263.582 274.917 269.148 272.049 269.148 272.049V268.379C269.148 268.379 267.104 270 266.073 267.764C265.042 265.528 265.248 254.277 266.279 254.482C267.31 254.687 269.354 258.153 269.354 258.153C269.354 258.153 269.973 257.76 271.003 253.458Z" fill="#BB6BD9" stroke="#263238" stroke-linecap="round" stroke-linejoin="round"/>
<path d="M268.049 254.277V281.114C268.049 284.272 275.35 286.833 284.37 286.833C293.39 286.833 300.674 284.272 300.674 281.114V254.277H268.049Z" fill="#BB6BD9" stroke="#263238" stroke-linecap="round" stroke-linejoin="round"/>
<path d="M300.674 254.277C300.674 257.009 293.372 259.211 284.37 259.211C275.368 259.211 268.049 257.009 268.049 254.277C268.049 251.546 275.35 249.344 284.37 249.344C293.39 249.344 300.674 251.563 300.674 254.277Z" fill="#E1E1E6" stroke="#263238" stroke-linecap="round" stroke-linejoin="round"/>
<path d="M298.544 254.277C298.544 256.65 292.188 258.562 284.371 258.562C276.554 258.562 270.18 256.65 270.18 254.277C270.18 251.904 276.536 249.992 284.371 249.992C292.205 249.992 298.544 251.904 298.544 254.277Z" fill="#E1E1E6" stroke="#263238" stroke-linecap="round" stroke-linejoin="round"/>
<path d="M273.426 257.009C280.567 259.08 288.155 259.08 295.296 257.009C288.155 254.938 280.567 254.938 273.426 257.009Z" fill="#263238" stroke="#263238" stroke-linecap="round" stroke-linejoin="round"/>
<path d="M20.4473 266.535L20.6534 275.72L82.9316 276.334V265.715L20.4473 266.535Z" fill="#E1E1E6" stroke="#263238" stroke-linecap="round" stroke-linejoin="round"/>
<path d="M82.9319 276.334L91.9858 256.941V251.222L82.5195 267.559L82.9319 276.334Z" fill="#E1E1E6" stroke="#263238" stroke-linecap="round" stroke-linejoin="round"/>
<path d="M20.4473 274.9L20.6534 284.102L82.9316 284.716V274.098L20.4473 274.9Z" fill="#E1E1E6" stroke="#263238" stroke-linecap="round" stroke-linejoin="round"/>
<path d="M82.9319 284.716L91.9858 265.306V259.587L82.5195 275.924L82.9319 284.716Z" fill="#E1E1E6" stroke="#263238" stroke-linecap="round" stroke-linejoin="round"/>
<path d="M44.5001 243.249C44.5001 243.249 45.9433 240.398 43.8816 239.169C41.82 237.94 39.5694 240.876 38.3324 241.815C37.0955 242.754 11.2049 259.791 10.3803 262.455C9.55562 265.118 10.3803 270.991 15.9295 271.639C21.4787 272.288 26.4094 268.583 28.8833 267.969C31.3573 267.354 32.3194 267.149 32.3194 267.149L49.3793 244.273L44.5001 243.249Z" fill="#BB6BD9" stroke="#263238" stroke-linecap="round" stroke-linejoin="round"/>
<path d="M15.9299 271.656C21.4791 272.271 26.4098 268.601 28.8838 267.986C31.3577 267.371 32.3198 267.167 32.3198 267.167L32.9383 266.33L16.9092 263.086C16.0377 262.271 14.9173 261.767 13.7254 261.656C12.5335 261.545 11.3383 261.832 10.3292 262.472C9.55607 265.101 10.3807 271.025 15.9299 271.656Z" fill="#E1E1E6" stroke="#263238" stroke-linecap="round" stroke-linejoin="round"/>
<path d="M16.9609 263.121H65.0654C80.0809 263.121 84.5993 262.301 84.5993 262.301L93.8423 243.3C93.8423 243.3 64.6359 245.144 55.6164 244.529C51.8892 244.423 48.1773 244.012 44.518 243.3L16.9609 263.121Z" fill="#BB6BD9" stroke="#263238" stroke-linecap="round" stroke-linejoin="round"/>
<path d="M16.9609 263.121L17.7856 266.791C17.7856 266.791 56.8362 266.996 67.1099 266.996C77.3837 266.996 85.2006 267.406 85.2006 267.406L84.5821 262.284L16.9609 263.121Z" fill="#E1E1E6" stroke="#263238" stroke-linecap="round" stroke-linejoin="round"/>
<path d="M85.2005 267.354L93.825 247.739V243.249L84.582 262.25L85.2005 267.354Z" fill="#E1E1E6" stroke="#263238" stroke-linecap="round" stroke-linejoin="round"/>
<path d="M223.947 290.299H106.177C105.916 290.301 105.657 290.252 105.415 290.154C105.173 290.057 104.954 289.912 104.768 289.73C104.583 289.547 104.436 289.33 104.336 289.091C104.235 288.851 104.184 288.595 104.184 288.336C104.184 288.076 104.235 287.82 104.336 287.58C104.436 287.341 104.583 287.124 104.768 286.941C104.954 286.759 105.173 286.614 105.415 286.517C105.657 286.419 105.916 286.37 106.177 286.372H223.947C224.207 286.37 224.465 286.419 224.705 286.517C224.946 286.615 225.165 286.759 225.349 286.942C225.533 287.125 225.678 287.342 225.777 287.582C225.875 287.821 225.925 288.077 225.922 288.336C225.925 288.594 225.875 288.85 225.777 289.09C225.678 289.329 225.533 289.546 225.349 289.729C225.165 289.912 224.946 290.056 224.705 290.154C224.465 290.252 224.207 290.301 223.947 290.299Z" fill="#161E22" stroke="#263238" stroke-linecap="round" stroke-linejoin="round"/>
<path d="M225.081 286.338H105.3C104.862 286.339 104.44 286.173 104.121 285.875C103.801 285.577 103.609 285.168 103.582 284.733L97.071 206.972C97.0417 206.731 97.0644 206.487 97.1375 206.255C97.2106 206.024 97.3325 205.811 97.4951 205.63C97.6576 205.449 97.8571 205.304 98.0802 205.206C98.3033 205.108 98.545 205.058 98.789 205.059H231.609C231.853 205.058 232.095 205.108 232.318 205.206C232.541 205.304 232.74 205.449 232.903 205.63C233.066 205.811 233.187 206.024 233.261 206.255C233.334 206.487 233.356 206.731 233.327 206.972L226.816 284.733C226.789 285.171 226.594 285.582 226.271 285.881C225.948 286.179 225.522 286.343 225.081 286.338Z" fill="#161E22" stroke="#263238" stroke-linecap="round" stroke-linejoin="round"/>
<path d="M293.406 186.298C295.243 184.873 296.535 182.867 297.066 180.613C297.452 178.922 297.41 177.162 296.945 175.491" stroke="#6C7D85" stroke-linecap="round" stroke-linejoin="round"/>
<path d="M279.696 247.176C279.696 247.176 291.121 240.347 287.393 232.545C283.665 224.743 271.055 219.57 271.055 207.415C271.055 196.933 282.273 193.058 289.592 188.858" stroke="#6C7D85" stroke-linecap="round" stroke-linejoin="round"/>
<path d="M290.246 246.954C290.246 246.954 296.619 242.737 296.619 236.045C296.619 231.555 291.792 228.619 285.418 221.397" stroke="#6C7D85" stroke-linecap="round" stroke-linejoin="round"/>
<path d="M281.897 217.027C281.897 217.027 277.72 213.766 280.797 207.637" stroke="#6C7D85" stroke-linecap="round" stroke-linejoin="round"/>
<path fill-rule="evenodd" clip-rule="evenodd" d="M177.212 241.296C182.625 242.933 186.156 245.572 186.156 248.357C186.156 251.133 182.643 253.772 177.264 255.408C178.522 260.841 177.975 265.168 175.537 266.556C174.965 266.882 174.305 267.036 173.577 267.036C171.191 267.036 168.068 265.374 164.91 262.477C161.752 265.391 158.629 267.07 156.243 267.07C155.514 267.07 154.855 266.916 154.291 266.59C151.844 265.202 151.289 260.867 152.538 255.417C147.125 253.78 143.594 251.141 143.594 248.357C143.594 245.58 147.107 242.95 152.504 241.305C151.246 235.872 151.792 231.545 154.23 230.157C154.803 229.832 155.462 229.677 156.191 229.677V229.669C158.577 229.669 161.7 231.331 164.858 234.227C168.016 231.314 171.139 229.635 173.525 229.635V229.643C174.241 229.644 174.898 229.799 175.459 230.123C177.906 231.511 178.461 235.847 177.212 241.296ZM173.516 231.545C171.712 231.55 169.061 232.972 166.237 235.564C167.46 236.823 168.675 238.263 169.846 239.848C171.798 240.054 173.655 240.371 175.355 240.782C175.546 239.917 175.702 239.068 175.798 238.263C176.197 234.99 175.685 232.445 174.505 231.777C174.236 231.631 173.915 231.554 173.516 231.554V231.545ZM163.478 235.572C160.65 232.993 157.987 231.58 156.191 231.58V231.588C155.792 231.588 155.453 231.657 155.193 231.811C154.022 232.488 153.519 235.033 153.926 238.306C154.031 239.103 154.178 239.934 154.378 240.791C156.078 240.371 157.935 240.054 159.895 239.848C161.049 238.263 162.264 236.832 163.478 235.572ZM173.689 246.026C174.141 244.886 174.54 243.747 174.861 242.641C173.724 242.367 172.536 242.144 171.304 241.965C171.729 242.616 172.154 243.284 172.553 243.97C172.961 244.655 173.334 245.34 173.689 246.026ZM168.796 255.04C169.517 254.02 170.211 252.924 170.887 251.767C171.538 250.644 172.137 249.496 172.683 248.348C172.137 247.2 171.538 246.06 170.879 244.938C170.202 243.79 169.499 242.701 168.779 241.682C167.495 241.579 166.185 241.519 164.875 241.519C163.556 241.519 162.246 241.579 160.954 241.69C160.234 242.71 159.54 243.807 158.863 244.963C158.212 246.086 157.605 247.234 157.067 248.382C157.614 249.53 158.212 250.67 158.872 251.793C159.548 252.941 160.251 254.029 160.971 255.049C162.255 255.151 163.565 255.211 164.875 255.211C166.194 255.211 167.504 255.151 168.796 255.04ZM174.887 254.063C174.557 252.949 174.158 251.801 173.689 250.653C173.334 251.338 172.961 252.032 172.562 252.718C172.163 253.412 171.737 254.089 171.312 254.749C172.553 254.569 173.75 254.337 174.887 254.063ZM162.481 257.054C163.279 258.056 164.086 258.973 164.892 259.795C165.691 258.973 166.497 258.056 167.278 257.054C166.489 257.096 165.682 257.114 164.866 257.114C164.06 257.114 163.261 257.088 162.481 257.054ZM154.881 254.072C156.017 254.346 157.206 254.569 158.438 254.749C158.013 254.097 157.596 253.429 157.188 252.744C156.781 252.058 156.408 251.373 156.052 250.687C155.601 251.827 155.202 252.966 154.881 254.072ZM167.261 239.66C166.463 238.657 165.656 237.74 164.849 236.918C164.051 237.74 163.244 238.657 162.463 239.66C163.253 239.617 164.06 239.6 164.875 239.6C165.682 239.6 166.48 239.625 167.261 239.66ZM157.18 243.995C157.579 243.301 158.004 242.624 158.429 241.965C157.188 242.144 155.991 242.376 154.855 242.641C155.184 243.755 155.583 244.903 156.052 246.052C156.408 245.366 156.781 244.681 157.18 243.995ZM145.52 248.357C145.52 249.702 147.506 251.398 150.578 252.692C151.332 253.009 152.148 253.301 153.007 253.566C153.493 251.895 154.135 250.156 154.933 248.374C154.126 246.583 153.475 244.835 152.981 243.156C152.139 243.421 151.324 243.704 150.578 244.021C147.506 245.306 145.52 247.011 145.52 248.357ZM153.952 258.45C153.553 261.723 154.065 264.268 155.245 264.937C155.505 265.082 155.835 265.159 156.225 265.168C158.03 265.168 160.685 263.746 163.513 261.149C162.29 259.89 161.075 258.45 159.904 256.865C157.952 256.659 156.095 256.342 154.395 255.931C154.204 256.796 154.048 257.645 153.952 258.45ZM174.557 264.902C175.728 264.225 176.231 261.681 175.824 258.407C175.728 257.611 175.572 256.779 175.373 255.914C173.672 256.334 171.816 256.651 169.855 256.856C168.701 258.442 167.486 259.873 166.272 261.132C169.1 263.711 171.763 265.125 173.559 265.125C173.958 265.125 174.297 265.056 174.557 264.902ZM176.761 253.558C177.602 253.292 178.418 253.009 179.164 252.692C182.235 251.407 184.222 249.702 184.23 248.357C184.23 247.011 182.244 245.315 179.172 244.021C178.409 243.704 177.594 243.413 176.735 243.147C176.249 244.818 175.607 246.557 174.809 248.339C175.615 250.13 176.266 251.878 176.761 253.558ZM168.831 248.357C168.831 250.519 167.056 252.272 164.866 252.272C162.677 252.272 160.902 250.519 160.902 248.357C160.902 246.194 162.677 244.441 164.866 244.441C167.056 244.441 168.831 246.194 168.831 248.357Z" fill="#61DCFB"/>
</svg>
