<svg width="110" height="31" viewBox="0 0 110 31" fill="none" xmlns="http://www.w3.org/2000/svg">
<path d="M5.5 7.09375V24H0.984375V7.09375H5.5ZM0.703125 2.6875C0.703125 2.03125 0.932292 1.48958 1.39062 1.0625C1.84896 0.635417 2.46354 0.421875 3.23438 0.421875C3.99479 0.421875 4.60417 0.635417 5.0625 1.0625C5.53125 1.48958 5.76562 2.03125 5.76562 2.6875C5.76562 3.34375 5.53125 3.88542 5.0625 4.3125C4.60417 4.73958 3.99479 4.95312 3.23438 4.95312C2.46354 4.95312 1.84896 4.73958 1.39062 4.3125C0.932292 3.88542 0.703125 3.34375 0.703125 2.6875ZM19.9219 7.09375H24V23.4375C24 24.9792 23.6562 26.2865 22.9688 27.3594C22.2917 28.4427 21.3438 29.2604 20.125 29.8125C18.9062 30.375 17.4896 30.6562 15.875 30.6562C15.1667 30.6562 14.4167 30.5625 13.625 30.375C12.8438 30.1875 12.0938 29.8958 11.375 29.5C10.6667 29.1042 10.0729 28.6042 9.59375 28L11.5781 25.3438C12.099 25.9479 12.7031 26.4167 13.3906 26.75C14.0781 27.0938 14.8385 27.2656 15.6719 27.2656C16.4844 27.2656 17.1719 27.1146 17.7344 26.8125C18.2969 26.5208 18.7292 26.0885 19.0312 25.5156C19.3333 24.9531 19.4844 24.2708 19.4844 23.4688V11L19.9219 7.09375ZM8.54688 15.75V15.4219C8.54688 14.1302 8.70312 12.9583 9.01562 11.9062C9.33854 10.8438 9.79167 9.93229 10.375 9.17188C10.9688 8.41146 11.6875 7.82292 12.5312 7.40625C13.375 6.98958 14.3281 6.78125 15.3906 6.78125C16.5156 6.78125 17.4583 6.98958 18.2188 7.40625C18.9792 7.82292 19.6042 8.41667 20.0938 9.1875C20.5833 9.94792 20.9635 10.849 21.2344 11.8906C21.5156 12.9219 21.7344 14.0521 21.8906 15.2812V16C21.7344 17.1771 21.5 18.2708 21.1875 19.2812C20.875 20.2917 20.4635 21.1771 19.9531 21.9375C19.4427 22.6875 18.8073 23.2708 18.0469 23.6875C17.2969 24.1042 16.401 24.3125 15.3594 24.3125C14.3177 24.3125 13.375 24.099 12.5312 23.6719C11.6979 23.2448 10.9844 22.6458 10.3906 21.875C9.79688 21.1042 9.33854 20.1979 9.01562 19.1562C8.70312 18.1146 8.54688 16.9792 8.54688 15.75ZM13.0469 15.4219V15.75C13.0469 16.4479 13.1146 17.099 13.25 17.7031C13.3854 18.3073 13.5938 18.8438 13.875 19.3125C14.1667 19.7708 14.526 20.1302 14.9531 20.3906C15.3906 20.6406 15.9062 20.7656 16.5 20.7656C17.3229 20.7656 17.9948 20.5938 18.5156 20.25C19.0365 19.8958 19.4271 19.4115 19.6875 18.7969C19.9479 18.1823 20.099 17.474 20.1406 16.6719V14.625C20.1198 13.9688 20.0312 13.3802 19.875 12.8594C19.7188 12.3281 19.5 11.875 19.2188 11.5C18.9375 11.125 18.5729 10.8333 18.125 10.625C17.6771 10.4167 17.1458 10.3125 16.5312 10.3125C15.9375 10.3125 15.4219 10.4479 14.9844 10.7188C14.5573 10.9792 14.1979 11.3385 13.9062 11.7969C13.625 12.2552 13.4115 12.7969 13.2656 13.4219C13.1198 14.0365 13.0469 14.7031 13.0469 15.4219ZM41.1875 10.7031V24H36.6875V7.09375H40.9062L41.1875 10.7031ZM40.5312 14.9531H39.3125C39.3125 13.7031 39.474 12.5781 39.7969 11.5781C40.1198 10.5677 40.5729 9.70833 41.1562 9C41.7396 8.28125 42.4323 7.73438 43.2344 7.35938C44.0469 6.97396 44.9531 6.78125 45.9531 6.78125C46.7448 6.78125 47.4688 6.89583 48.125 7.125C48.7812 7.35417 49.3438 7.71875 49.8125 8.21875C50.2917 8.71875 50.6562 9.38021 50.9062 10.2031C51.1667 11.026 51.2969 12.0312 51.2969 13.2188V24H46.7656V13.2031C46.7656 12.4531 46.6615 11.8698 46.4531 11.4531C46.2448 11.0365 45.9375 10.7448 45.5312 10.5781C45.1354 10.401 44.6458 10.3125 44.0625 10.3125C43.4583 10.3125 42.9323 10.4323 42.4844 10.6719C42.0469 10.9115 41.6823 11.2448 41.3906 11.6719C41.1094 12.0885 40.8958 12.5781 40.75 13.1406C40.6042 13.7031 40.5312 14.3073 40.5312 14.9531ZM62.5 24.3125C61.1875 24.3125 60.0104 24.1042 58.9688 23.6875C57.9271 23.2604 57.0417 22.6719 56.3125 21.9219C55.5938 21.1719 55.0417 20.3021 54.6562 19.3125C54.2708 18.3125 54.0781 17.25 54.0781 16.125V15.5C54.0781 14.2188 54.2604 13.0469 54.625 11.9844C54.9896 10.9219 55.5104 10 56.1875 9.21875C56.875 8.4375 57.7083 7.83854 58.6875 7.42188C59.6667 6.99479 60.7708 6.78125 62 6.78125C63.1979 6.78125 64.2604 6.97917 65.1875 7.375C66.1146 7.77083 66.8906 8.33333 67.5156 9.0625C68.151 9.79167 68.6302 10.6667 68.9531 11.6875C69.276 12.6979 69.4375 13.8229 69.4375 15.0625V16.9375H56V13.9375H65.0156V13.5938C65.0156 12.9688 64.901 12.4115 64.6719 11.9219C64.4531 11.4219 64.1198 11.026 63.6719 10.7344C63.224 10.4427 62.651 10.2969 61.9531 10.2969C61.3594 10.2969 60.849 10.4271 60.4219 10.6875C59.9948 10.9479 59.6458 11.3125 59.375 11.7812C59.1146 12.25 58.9167 12.8021 58.7812 13.4375C58.6562 14.0625 58.5938 14.75 58.5938 15.5V16.125C58.5938 16.8021 58.6875 17.4271 58.875 18C59.0729 18.5729 59.349 19.0677 59.7031 19.4844C60.0677 19.901 60.5052 20.224 61.0156 20.4531C61.5365 20.6823 62.125 20.7969 62.7812 20.7969C63.5938 20.7969 64.349 20.6406 65.0469 20.3281C65.7552 20.0052 66.3646 19.5208 66.875 18.875L69.0625 21.25C68.7083 21.7604 68.224 22.25 67.6094 22.7188C67.0052 23.1875 66.276 23.5729 65.4219 23.875C64.5677 24.1667 63.5938 24.3125 62.5 24.3125ZM76.8281 19.625L80.3438 7.09375H83.2031L82.2812 12.0156L78.7656 24H76.375L76.8281 19.625ZM75.0469 7.09375L77.5625 19.6094L77.7969 24H74.9844L70.7031 7.09375H75.0469ZM86.4219 19.4062L88.875 7.09375H93.2344L88.9531 24H86.1562L86.4219 19.4062ZM83.5938 7.09375L87.0938 19.5312L87.5781 24H85.1719L81.6562 12.0312L80.7656 7.09375H83.5938ZM104.641 19.3281C104.641 19.0052 104.547 18.7135 104.359 18.4531C104.172 18.1927 103.823 17.9531 103.312 17.7344C102.812 17.5052 102.089 17.2969 101.141 17.1094C100.286 16.9219 99.4896 16.6875 98.75 16.4062C98.0208 16.1146 97.3854 15.7656 96.8438 15.3594C96.3125 14.9531 95.8958 14.474 95.5938 13.9219C95.2917 13.3594 95.1406 12.7188 95.1406 12C95.1406 11.2917 95.2917 10.625 95.5938 10C95.9062 9.375 96.349 8.82292 96.9219 8.34375C97.5052 7.85417 98.2135 7.47396 99.0469 7.20312C99.8906 6.92188 100.839 6.78125 101.891 6.78125C103.359 6.78125 104.62 7.01562 105.672 7.48438C106.734 7.95312 107.547 8.59896 108.109 9.42188C108.682 10.2344 108.969 11.1615 108.969 12.2031H104.469C104.469 11.7656 104.375 11.375 104.188 11.0312C104.01 10.6771 103.729 10.401 103.344 10.2031C102.969 9.99479 102.479 9.89062 101.875 9.89062C101.375 9.89062 100.943 9.97917 100.578 10.1562C100.214 10.3229 99.9323 10.5521 99.7344 10.8438C99.5469 11.125 99.4531 11.4375 99.4531 11.7812C99.4531 12.0417 99.5052 12.276 99.6094 12.4844C99.724 12.6823 99.9062 12.8646 100.156 13.0312C100.406 13.1979 100.729 13.3542 101.125 13.5C101.531 13.6354 102.031 13.7604 102.625 13.875C103.844 14.125 104.932 14.4531 105.891 14.8594C106.849 15.2552 107.609 15.7969 108.172 16.4844C108.734 17.1615 109.016 18.0521 109.016 19.1562C109.016 19.9062 108.849 20.5938 108.516 21.2188C108.182 21.8438 107.703 22.3906 107.078 22.8594C106.453 23.3177 105.703 23.6771 104.828 23.9375C103.964 24.1875 102.99 24.3125 101.906 24.3125C100.333 24.3125 99 24.0312 97.9062 23.4688C96.8229 22.9062 96 22.1927 95.4375 21.3281C94.8854 20.4531 94.6094 19.5573 94.6094 18.6406H98.875C98.8958 19.2552 99.0521 19.75 99.3438 20.125C99.6458 20.5 100.026 20.7708 100.484 20.9375C100.953 21.1042 101.458 21.1875 102 21.1875C102.583 21.1875 103.068 21.1094 103.453 20.9531C103.839 20.7865 104.13 20.5677 104.328 20.2969C104.536 20.0156 104.641 19.6927 104.641 19.3281Z" fill="#E1E1E6"/>
<path d="M27.7188 21.8281C27.7188 21.1615 27.9479 20.6042 28.4062 20.1562C28.875 19.7083 29.4948 19.4844 30.2656 19.4844C31.0365 19.4844 31.651 19.7083 32.1094 20.1562C32.5781 20.6042 32.8125 21.1615 32.8125 21.8281C32.8125 22.4948 32.5781 23.0521 32.1094 23.5C31.651 23.9479 31.0365 24.1719 30.2656 24.1719C29.4948 24.1719 28.875 23.9479 28.4062 23.5C27.9479 23.0521 27.7188 22.4948 27.7188 21.8281Z" fill="#FE279A"/>
</svg>
